<svg xmlns="http://www.w3.org/2000/svg" width="600" height="960" viewBox="0 0 600 960">
  <defs>
    <linearGradient id="bg" x1="0" y1="0" x2="1" y2="1">
      <stop offset="0" stop-color="#0b1024"/>
      <stop offset="0.55" stop-color="#121a3a"/>
      <stop offset="1" stop-color="#070a14"/>
    </linearGradient>
    <radialGradient id="glow" cx="50%" cy="30%" r="70%">
      <stop offset="0" stop-color="#fbbf24" stop-opacity="0.20"/>
      <stop offset="0.6" stop-color="#60a5fa" stop-opacity="0.10"/>
      <stop offset="1" stop-color="#000000" stop-opacity="0"/>
    </radialGradient>
    <pattern id="stars" width="120" height="120" patternUnits="userSpaceOnUse">
      <circle cx="14" cy="22" r="1.6" fill="#e2e8f0" opacity="0.25"/>
      <circle cx="88" cy="16" r="1.2" fill="#e2e8f0" opacity="0.18"/>
      <circle cx="54" cy="78" r="1.4" fill="#e2e8f0" opacity="0.22"/>
      <circle cx="108" cy="92" r="1.1" fill="#e2e8f0" opacity="0.16"/>
      <circle cx="26" cy="104" r="1.1" fill="#e2e8f0" opacity="0.14"/>
      <circle cx="66" cy="40" r="1.0" fill="#e2e8f0" opacity="0.12"/>
    </pattern>
    <linearGradient id="gold" x1="0" y1="0" x2="0" y2="1">
      <stop offset="0" stop-color="#fef3c7" stop-opacity="0.75"/>
      <stop offset="0.5" stop-color="#f59e0b" stop-opacity="0.55"/>
      <stop offset="1" stop-color="#92400e" stop-opacity="0.65"/>
    </linearGradient>
    <filter id="softShadow" x="-20%" y="-20%" width="140%" height="140%">
      <feDropShadow dx="0" dy="16" stdDeviation="18" flood-color="#000000" flood-opacity="0.35"/>
    </filter>
  </defs>

  <rect width="600" height="960" rx="34" fill="url(#bg)"/>
  <rect width="600" height="960" rx="34" fill="url(#glow)"/>
  <rect width="600" height="960" rx="34" fill="url(#stars)" opacity="0.55"/>

  <g filter="url(#softShadow)">
    <rect x="28" y="28" width="544" height="904" rx="28" fill="none" stroke="url(#gold)" stroke-width="2" opacity="0.55"/>
    <rect x="48" y="48" width="504" height="864" rx="24" fill="none" stroke="url(#gold)" stroke-width="1.5" opacity="0.35"/>
  </g>

  <g opacity="0.60">
    <path d="M300 220c44 0 80 36 80 80 0 44-36 80-80 80s-80-36-80-80c0-44 36-80 80-80z" fill="none" stroke="url(#gold)" stroke-width="2"/>
    <path d="M300 244c31 0 56 25 56 56s-25 56-56 56-56-25-56-56 25-56 56-56z" fill="none" stroke="url(#gold)" stroke-width="1.5" opacity="0.65"/>
    <path d="M300 560c-54 0-98-44-98-98 0-54 44-98 98-98s98 44 98 98c0 54-44 98-98 98z" fill="none" stroke="url(#gold)" stroke-width="1.5" opacity="0.28"/>
  </g>

  <g opacity="0.75">
    <path d="M300 312v336" stroke="url(#gold)" stroke-width="1.5" opacity="0.55"/>
    <path d="M132 480h336" stroke="url(#gold)" stroke-width="1.5" opacity="0.55"/>
    <path d="M192 372l216 216" stroke="url(#gold)" stroke-width="1.2" opacity="0.35"/>
    <path d="M408 372L192 588" stroke="url(#gold)" stroke-width="1.2" opacity="0.35"/>
  </g>

  <g opacity="0.65">
    <path d="M300 646l62 86h-124l62-86z" fill="none" stroke="url(#gold)" stroke-width="1.3" opacity="0.45"/>
    <path d="M300 314l34 46h-68l34-46z" fill="none" stroke="url(#gold)" stroke-width="1.3" opacity="0.35"/>
  </g>
</svg>
